# Blender 4.0.1
# www.blender.org
mtllib 3d_armor_entity.mtl
o Player_Cube
v 2.200000 9.763893 1.199999
v 2.200000 9.763893 -1.200001
v 2.200000 2.663871 1.200000
v 2.200000 2.663871 -1.200000
v -2.200000 9.763893 -1.200001
v -2.200000 9.763893 1.199999
v -2.200000 2.663871 -1.200000
v -2.200000 2.663871 1.200000
v 2.300000 13.863962 2.299999
v 2.300000 13.863962 -2.300001
v 2.300000 9.263885 2.299999
v 2.300000 9.263885 -2.300001
v -2.300000 13.863962 -2.300001
v -2.300000 13.863962 2.299999
v -2.300000 9.263885 -2.300001
v -2.300000 9.263885 2.299999
v -2.322686 2.473175 -1.300000
v -2.322686 2.473175 1.300000
v -4.713554 2.682348 1.300000
v -4.713554 2.682348 -1.300000
v -1.686446 9.745432 -1.300001
v -1.686446 9.745432 1.299999
v -4.077313 9.954605 1.299999
v -4.077313 9.954605 -1.300001
v 4.077313 9.954605 -1.300001
v 4.077313 9.954605 1.299999
v 1.686446 9.745432 1.299999
v 1.686446 9.745432 -1.300001
v 4.713554 2.682348 -1.300000
v 4.713554 2.682348 1.300000
v 2.322686 2.473175 1.300000
v 2.322686 2.473175 -1.300000
v 0.139099 2.938947 -1.200000
v 0.139099 2.938947 1.200000
v 0.261266 -4.059988 1.200000
v 0.261266 -4.059988 -1.200000
v 2.660901 -4.018101 1.190000
v 2.660901 -4.018101 -1.210000
v 2.538733 2.980834 1.190000
v 2.538733 2.980834 -1.210000
v -0.139099 2.938947 -1.200000
v -0.139099 2.938947 1.200000
v -0.261266 -4.059988 1.200000
v -0.261266 -4.059988 -1.200000
v -2.538734 2.980834 -1.210000
v -2.538734 2.980834 1.190000
v -2.660901 -4.018101 -1.210000
v -2.660901 -4.018101 1.190000
v -2.799999 -4.387500 1.390000
v -2.799999 -4.387500 -1.410000
v -2.800000 -0.812499 1.390000
v -2.800000 -0.812499 -1.410000
v 0.000000 -4.387500 -1.400000
v 0.000000 -4.387500 1.400000
v 0.000000 -0.812499 1.400000
v 0.000000 -0.812499 -1.400000
v 2.800000 -0.812499 -1.410000
v 2.800000 -0.812499 1.390000
v 2.799999 -4.387500 -1.410000
v 2.799999 -4.387500 1.390000
v 0.000000 -4.387500 -1.400000
v 0.000000 -4.387500 1.400000
v 0.000000 -0.812499 1.400000
v 0.000000 -0.812499 -1.400000
v 2.267006 13.830965 2.267005
v 2.267006 13.830965 -2.267007
v 2.267006 9.296881 2.267005
v 2.267006 9.296881 -2.267007
v -2.267006 13.830965 -2.267007
v -2.267006 13.830965 2.267005
v -2.267006 9.296881 -2.267007
v -2.267006 9.296881 2.267005
v 3.314726 -4.247224 -3.195404
v 3.314725 2.281333 -2.044243
v -3.314528 2.289258 -2.042845
v -3.314528 -4.239294 -3.194006
v 3.314728 -4.246871 -3.197405
v -3.314527 -4.238942 -3.196007
v -3.314526 2.289611 -2.044846
v 3.314727 2.281686 -2.046245
v 3.314718 -4.248638 -3.187395
v 3.314719 2.279917 -2.036235
v -3.314534 2.287845 -2.034836
v -3.314535 -4.240707 -3.185998
v 3.314721 -4.248281 -3.189395
v -3.314533 -4.240354 -3.188000
v -3.314533 2.288198 -2.036838
v 3.314722 2.280270 -2.038236
v 3.314713 -4.250049 -3.179387
v 3.314715 2.278508 -2.028227
v -3.314542 2.286431 -2.026828
v -3.314542 -4.242122 -3.177989
v 3.314714 -4.249695 -3.181389
v -3.314539 -4.241770 -3.179993
v -3.314538 2.286786 -2.028829
v 3.314715 2.278859 -2.030228
v 3.314706 -4.251462 -3.171378
v 3.314706 2.277092 -2.020219
v -3.314546 2.285018 -2.018819
v -3.314548 -4.243534 -3.169981
v 3.314708 -4.251108 -3.173379
v -3.314545 -4.243180 -3.171984
v -3.314544 2.285373 -2.020822
v 3.314708 2.277445 -2.022219
v 3.314700 -4.252876 -3.163370
v 3.314700 2.275681 -2.012209
v -3.314553 2.283606 -2.010810
v -3.314554 -4.244946 -3.161973
v 3.314701 -4.252523 -3.165371
v -3.314553 -4.244594 -3.163975
v -3.314552 2.283959 -2.012812
v 3.314702 2.276034 -2.014210
v 3.314693 -4.254287 -3.155360
v 3.314692 2.274268 -2.004202
v -3.314561 2.282195 -2.002802
v -3.314562 -4.246359 -3.153965
v 3.314694 -4.253935 -3.157363
v -3.314559 -4.246006 -3.155965
v -3.314559 2.282545 -2.004804
v 3.314695 2.274621 -2.006203
v 3.314686 -4.255702 -3.147353
v 3.314687 2.272855 -1.996192
v -3.314567 2.280778 -1.994794
v -3.314567 -4.247770 -3.145955
v 3.314688 -4.255347 -3.149354
v -3.314567 -4.247419 -3.147958
v -3.314565 2.281135 -1.996796
v 3.314688 2.273206 -1.998195
v 3.314680 -4.257113 -3.139344
v 3.314681 2.271441 -1.988184
v -3.314573 2.279368 -1.986785
v -3.314575 -4.249184 -3.137948
v 3.314682 -4.256760 -3.141346
v -3.314573 -4.248831 -3.139949
v -3.314571 2.279719 -1.988787
v 3.314683 2.271796 -1.990186
v 3.314673 -4.258526 -3.131335
v 3.314674 2.270030 -1.980175
v -3.314579 2.277955 -1.978776
v -3.314580 -4.250597 -3.129939
v 3.314674 -4.258172 -3.133337
v -3.314578 -4.250246 -3.131941
v -3.314578 2.278309 -1.980778
v 3.314676 2.270380 -1.982177
v 3.314667 -4.259939 -3.123328
v 3.314667 2.268617 -1.972167
v -3.314586 2.276541 -1.970768
v -3.314587 -4.252012 -3.121931
v 3.314667 -4.259586 -3.125329
v -3.314585 -4.251659 -3.123933
v -3.314584 2.276894 -1.972771
v 3.314669 2.268968 -1.974169
v 3.314659 -4.261350 -3.115319
v 3.314661 2.267204 -1.964159
v -3.314592 2.275128 -1.962760
v -3.314594 -4.253421 -3.113922
v 3.314660 -4.260998 -3.117319
v -3.314592 -4.253068 -3.115923
v -3.314592 2.275483 -1.964762
v 3.314663 2.267557 -1.966161
v 3.314655 -4.262764 -3.107310
v 3.314655 2.265792 -1.956150
v -3.314599 2.273715 -1.954751
v -3.314602 -4.254834 -3.105913
v 3.314656 -4.262410 -3.109312
v -3.314600 -4.254483 -3.107916
v -3.314597 2.274068 -1.956754
v 3.314656 2.266142 -1.958152
v 3.314646 -4.264177 -3.099301
v 3.314647 2.264378 -1.948142
v -3.314607 2.272304 -1.946742
v -3.314607 -4.256248 -3.097905
v 3.314649 -4.263825 -3.101303
v -3.314605 -4.255898 -3.099907
v -3.314604 2.272657 -1.948745
v 3.314648 2.264728 -1.950145
v 3.314641 -4.265591 -3.091293
v 3.314642 2.262966 -1.940134
v -3.314613 2.270890 -1.938734
v -3.314614 -4.257662 -3.089897
v 3.314642 -4.265235 -3.093295
v -3.314612 -4.257311 -3.091899
v -3.314611 2.271243 -1.940736
v 3.314642 2.263314 -1.942135
v 3.314632 -4.267004 -3.083284
v 3.314634 2.261553 -1.932125
v -3.314620 2.269477 -1.930726
v -3.314621 -4.259075 -3.081889
v 3.314634 -4.266650 -3.085286
v -3.314618 -4.258720 -3.083890
v -3.314616 2.269831 -1.932728
v 3.314636 2.261906 -1.934126
v 3.314628 -4.268417 -3.075276
v 3.314628 2.260140 -1.924117
v -3.314626 2.268065 -1.922718
v -3.314626 -4.260489 -3.073880
v 3.314629 -4.268061 -3.077278
v -3.314626 -4.260135 -3.075882
v -3.314625 2.268416 -1.924720
v 3.314630 2.260490 -1.926118
v 3.314620 -4.269829 -3.067267
v 3.314621 2.258727 -1.916108
v -3.314633 2.266652 -1.914709
v -3.314634 -4.261897 -3.065871
v 3.314620 -4.269476 -3.069269
v -3.314631 -4.261545 -3.067874
v -3.314630 2.267006 -1.916711
v 3.314623 2.259079 -1.918109
v 3.314614 -4.271242 -3.059259
v 3.314615 2.257315 -1.908099
v -3.314640 2.265239 -1.906701
v -3.314640 -4.263313 -3.057862
v 3.314615 -4.270888 -3.061260
v -3.314639 -4.262959 -3.059865
v -3.314637 2.265591 -1.908703
v 3.314617 2.257667 -1.910100
v 3.314608 -4.272655 -3.051251
v 3.314608 2.255901 -1.900091
v -3.314646 2.263826 -1.898693
v -3.314645 -4.264724 -3.049854
v 3.314609 -4.272302 -3.053253
v -3.314644 -4.264372 -3.051857
v -3.314643 2.264180 -1.900694
v 3.314610 2.256254 -1.902093
v 3.314601 -4.274067 -3.043242
v 3.314602 2.254486 -1.892083
v -3.314652 2.262413 -1.890684
v -3.314651 -4.266137 -3.041845
v 3.314602 -4.273715 -3.045245
v -3.314649 -4.265787 -3.043849
v -3.314652 2.262767 -1.892685
v 3.314603 2.254841 -1.894085
v 3.314595 -4.275479 -3.035233
v 3.314594 2.253073 -1.884075
v -3.314657 2.261000 -1.882675
v -3.314659 -4.267550 -3.033838
v 3.314596 -4.275127 -3.037236
v -3.314659 -4.267198 -3.035839
v -3.314657 2.261354 -1.884678
v 3.314598 2.253428 -1.886076
v 3.314588 -4.276891 -3.027225
v 3.314589 2.251663 -1.876066
v -3.314666 2.259589 -1.874666
v -3.314667 -4.268965 -3.025829
v 3.314588 -4.276539 -3.029227
v -3.314664 -4.268612 -3.027832
v -3.314664 2.259941 -1.876670
v 3.314590 2.252015 -1.878068
v 3.314581 -4.278305 -3.019217
v 3.314582 2.250248 -1.868057
v -3.314672 2.258177 -1.866658
v -3.314671 -4.270378 -3.017820
v 3.314584 -4.277954 -3.021218
v -3.314671 -4.270025 -3.019823
v -3.314670 2.258528 -1.868660
v 3.314584 2.250604 -1.870059
v 3.314575 -4.279717 -3.011209
v 3.314576 2.248837 -1.860050
v -3.314677 2.256762 -1.858651
v -3.314679 -4.271790 -3.009811
v 3.314576 -4.279366 -3.013211
v -3.314678 -4.271438 -3.011815
v -3.314677 2.257116 -1.860652
v 3.314579 2.249188 -1.862050
v 3.314568 -4.281132 -3.003200
v 3.314569 2.247421 -1.852041
v -3.314686 2.255351 -1.850641
v -3.314685 -4.273204 -3.001802
v 3.314570 -4.280779 -3.005202
v -3.314683 -4.272850 -3.003805
v -3.314683 2.255705 -1.852644
v 3.314571 2.247779 -1.854042
v 3.314562 -4.282546 -2.995192
v 3.314563 2.246010 -1.844033
v -3.314691 2.253935 -1.842633
v -3.314692 -4.274616 -2.993794
v 3.314563 -4.282193 -2.997193
v -3.314690 -4.274262 -2.995796
v -3.314688 2.254287 -1.844636
v 3.314564 2.246361 -1.846034
v 3.314554 -4.283957 -2.987184
v 3.314556 2.244597 -1.836024
v -3.314698 2.252525 -1.834624
v -3.314699 -4.276030 -2.985786
v 3.314556 -4.283605 -2.989185
v -3.314699 -4.275676 -2.987789
v -3.314696 2.252877 -1.836627
v 3.314559 2.244951 -1.838026
v 3.314549 -4.285371 -2.979175
v 3.314550 2.243183 -1.828016
v -3.314705 2.251109 -1.826617
v -3.314707 -4.277441 -2.977779
v 3.314550 -4.285017 -2.981176
v -3.314703 -4.277088 -2.979780
v -3.314703 2.251461 -1.828618
v 3.314551 2.243536 -1.830017
v 3.314542 -4.286783 -2.971166
v 3.314542 2.241772 -1.820007
v -3.314712 2.249696 -1.818607
v -3.314713 -4.278857 -2.969769
v 3.314544 -4.286431 -2.973167
v -3.314709 -4.278502 -2.971772
v -3.314711 2.250051 -1.820609
v 3.314544 2.242126 -1.822009
v 3.314535 -4.288197 -2.963159
v 3.314535 2.240357 -1.811998
v -3.314718 2.248284 -1.810599
v -3.314718 -4.280267 -2.961761
v 3.314537 -4.287843 -2.965159
v -3.314716 -4.279915 -2.963763
v -3.314718 2.248638 -1.812601
v 3.314538 2.240710 -1.814000
v 3.314528 -4.289608 -2.955150
v 3.314530 2.238947 -1.803990
v -3.314725 2.246872 -1.802591
v -3.314725 -4.281681 -2.953753
v 3.314530 -4.289256 -2.957151
v -3.314725 -4.281328 -2.955755
v -3.314722 2.247226 -1.804593
v 3.314532 2.239299 -1.805991
vn 1.0000 -0.0000 -0.0000
vn -0.0000 1.0000 -0.0000
vn -0.0000 -1.0000 -0.0000
vn -0.0000 -0.0000 -1.0000
vn -1.0000 -0.0000 -0.0000
vn -0.0000 -0.0000 1.0000
vn -0.0872 -0.9962 -0.0000
vn 0.0872 0.9962 -0.0000
vn -0.9962 0.0872 -0.0000
vn 0.9962 -0.0872 -0.0000
vn -0.9962 -0.0872 -0.0000
vn 0.9962 0.0872 -0.0000
vn -0.0872 0.9962 -0.0000
vn 0.0872 -0.9962 -0.0000
vn -0.0175 0.9998 -0.0000
vn 0.0175 -0.9998 -0.0000
vn 0.9998 0.0175 -0.0000
vn 0.0042 0.0001 1.0000
vn -0.0042 -0.0001 -1.0000
vn -0.9998 -0.0175 -0.0000
vn 0.0175 0.9998 -0.0000
vn 0.9998 -0.0175 -0.0000
vn 0.0042 -0.0001 -1.0000
vn -0.0042 0.0001 1.0000
vn -0.9998 0.0175 -0.0000
vn -0.0175 -0.9998 -0.0000
vn -0.0036 -0.0000 1.0000
vn 0.0036 -0.0000 -1.0000
vn -0.0036 -0.0000 -1.0000
vn 0.0036 -0.0000 1.0000
vn -0.0000 -0.1736 0.9848
vn -0.0000 0.1736 -0.9848
vt 0.250000 0.375000
vt 0.250000 0.000000
vt 0.312500 0.000000
vt 0.312500 0.375000
vt 0.437500 0.375000
vt 0.437500 0.500000
vt 0.312500 0.500000
vt 0.562500 0.375000
vt 0.562500 0.500000
vt 0.437500 0.000000
vt 0.500000 0.000000
vt 0.500000 0.375000
vt 0.625000 0.000000
vt 0.625000 0.375000
vt 0.500000 0.750000
vt 0.500000 0.500000
vt 0.625000 0.500000
vt 0.625000 0.750000
vt 0.750000 0.750000
vt 0.750000 1.000000
vt 0.625000 1.000000
vt 0.875000 0.750000
vt 0.875000 1.000000
vt 0.750000 0.500000
vt 0.875000 0.500000
vt 1.000000 0.750000
vt 1.000000 0.500000
vt 0.750000 0.375000
vt 0.812500 0.500000
vt 0.812500 0.375000
vt 0.687500 0.375000
vt 0.687500 0.500000
vt 0.687500 0.000000
vt 0.750000 0.000000
vt 0.812500 0.000000
vt 0.875000 0.375000
vt 0.875000 0.000000
vt 0.125000 0.375000
vt 0.062500 0.375000
vt 0.062500 0.500000
vt 0.125000 0.500000
vt 0.187500 0.375000
vt 0.187500 0.500000
vt 0.000000 0.375000
vt 0.000000 0.000000
vt 0.062500 0.000000
vt 0.187500 0.000000
vt 0.125000 0.000000
vt 0.437500 0.875000
vt 0.437500 1.000000
vt 0.375000 1.000000
vt 0.375000 0.875000
vt 0.250000 0.875000
vt 0.312500 0.875000
vt 0.312500 0.656250
vt 0.250000 0.656250
vt 0.500000 0.875000
vt 0.437500 0.656250
vt 0.500000 0.656250
vt 0.375000 0.656250
vt 0.312500 1.000000
vt 0.241190 0.519531
vt 0.241190 1.000000
vt 0.008810 1.000000
vt 0.008810 0.519531
s 0
usemtl Armor
f 1/1/1 3/2/1 4/3/1 2/4/1
f 5/5/2 6/6/2 1/7/2 2/4/2
f 8/6/3 7/5/3 4/8/3 3/9/3
f 5/5/4 2/4/4 4/3/4 7/10/4
f 7/10/5 8/11/5 6/12/5 5/5/5
f 8/11/6 3/13/6 1/14/6 6/12/6
f 9/15/1 11/16/1 12/17/1 10/18/1
f 13/19/2 14/20/2 9/21/2 10/18/2
f 12/22/3 11/23/3 16/20/3 15/19/3
f 13/19/4 10/18/4 12/17/4 15/24/4
f 14/22/5 13/19/5 15/24/5 16/25/5
f 9/26/6 14/22/6 16/25/6 11/27/6
f 17/28/7 18/24/7 19/29/7 20/30/7
f 24/31/8 23/32/8 22/24/8 21/28/8
f 23/31/9 24/14/9 20/13/9 19/33/9
f 24/31/4 21/28/4 17/34/4 20/33/4
f 21/28/10 22/30/10 18/35/10 17/34/10
f 22/30/6 23/36/6 19/37/6 18/35/6
f 27/30/6 31/35/6 30/37/6 26/36/6
f 28/28/11 32/34/11 31/35/11 27/30/11
f 25/31/4 29/33/4 32/34/4 28/28/4
f 26/31/12 30/33/12 29/13/12 25/14/12
f 25/31/13 28/28/13 27/24/13 26/32/13
f 32/28/14 29/30/14 30/29/14 31/24/14
f 40/38/15 33/39/15 34/40/15 39/41/15
f 36/42/16 38/38/16 37/41/16 35/43/16
f 39/44/17 37/45/17 38/46/17 40/39/17
f 34/1/18 35/2/18 37/47/18 39/42/18
f 40/38/19 38/48/19 36/46/19 33/39/19
f 33/42/20 36/47/20 35/48/20 34/38/20
f 45/38/21 46/41/21 42/40/21 41/39/21
f 41/42/22 42/38/22 43/48/22 44/47/22
f 45/38/23 41/39/23 44/46/23 47/48/23
f 42/1/24 46/42/24 48/47/24 43/2/24
f 46/44/25 45/39/25 47/46/25 48/45/25
f 44/42/26 43/43/26 48/41/26 47/38/26
f 53/49/3 54/50/3 49/51/3 50/52/3
f 51/53/5 52/54/5 50/55/5 49/56/5
f 55/57/27 51/49/27 49/58/27 54/59/27
f 52/52/28 56/54/28 53/55/28 50/60/28
f 56/49/1 55/52/1 54/60/1 53/58/1
f 52/52/2 51/51/2 55/61/2 56/54/2
f 64/49/5 61/58/5 62/60/5 63/52/5
f 57/52/29 59/60/29 61/55/29 64/54/29
f 63/57/30 62/59/30 60/58/30 58/49/30
f 58/53/1 60/56/1 59/55/1 57/54/1
f 61/49/3 59/52/3 60/51/3 62/50/3
f 57/52/2 64/54/2 63/61/2 58/51/2
f 65/15/5 66/18/5 68/17/5 67/16/5
f 69/19/3 66/18/3 65/21/3 70/20/3
f 68/22/2 71/19/2 72/20/2 67/23/2
f 69/19/6 71/24/6 68/17/6 66/18/6
f 70/22/1 72/25/1 71/24/1 69/19/1
f 65/26/4 67/27/4 72/25/4 70/22/4
f 73/62/31 74/63/31 75/64/31 76/65/31
f 77/62/32 78/65/32 79/64/32 80/63/32
f 81/62/31 82/63/31 83/64/31 84/65/31
f 85/62/32 86/65/32 87/64/32 88/63/32
f 89/62/31 90/63/31 91/64/31 92/65/31
f 93/62/32 94/65/32 95/64/32 96/63/32
f 97/62/31 98/63/31 99/64/31 100/65/31
f 101/62/32 102/65/32 103/64/32 104/63/32
f 105/62/31 106/63/31 107/64/31 108/65/31
f 109/62/32 110/65/32 111/64/32 112/63/32
f 113/62/31 114/63/31 115/64/31 116/65/31
f 117/62/32 118/65/32 119/64/32 120/63/32
f 121/62/31 122/63/31 123/64/31 124/65/31
f 125/62/32 126/65/32 127/64/32 128/63/32
f 129/62/31 130/63/31 131/64/31 132/65/31
f 133/62/32 134/65/32 135/64/32 136/63/32
f 137/62/31 138/63/31 139/64/31 140/65/31
f 141/62/32 142/65/32 143/64/32 144/63/32
f 145/62/31 146/63/31 147/64/31 148/65/31
f 149/62/32 150/65/32 151/64/32 152/63/32
f 153/62/31 154/63/31 155/64/31 156/65/31
f 157/62/32 158/65/32 159/64/32 160/63/32
f 161/62/31 162/63/31 163/64/31 164/65/31
f 165/62/32 166/65/32 167/64/32 168/63/32
f 169/62/31 170/63/31 171/64/31 172/65/31
f 173/62/32 174/65/32 175/64/32 176/63/32
f 177/62/31 178/63/31 179/64/31 180/65/31
f 181/62/32 182/65/32 183/64/32 184/63/32
f 185/62/31 186/63/31 187/64/31 188/65/31
f 189/62/32 190/65/32 191/64/32 192/63/32
f 193/62/31 194/63/31 195/64/31 196/65/31
f 197/62/32 198/65/32 199/64/32 200/63/32
f 201/62/31 202/63/31 203/64/31 204/65/31
f 205/62/32 206/65/32 207/64/32 208/63/32
f 209/62/31 210/63/31 211/64/31 212/65/31
f 213/62/32 214/65/32 215/64/32 216/63/32
f 217/62/31 218/63/31 219/64/31 220/65/31
f 221/62/32 222/65/32 223/64/32 224/63/32
f 225/62/31 226/63/31 227/64/31 228/65/31
f 229/62/32 230/65/32 231/64/32 232/63/32
f 233/62/31 234/63/31 235/64/31 236/65/31
f 237/62/32 238/65/32 239/64/32 240/63/32
f 241/62/31 242/63/31 243/64/31 244/65/31
f 245/62/32 246/65/32 247/64/32 248/63/32
f 249/62/31 250/63/31 251/64/31 252/65/31
f 253/62/32 254/65/32 255/64/32 256/63/32
f 257/62/31 258/63/31 259/64/31 260/65/31
f 261/62/32 262/65/32 263/64/32 264/63/32
f 265/62/31 266/63/31 267/64/31 268/65/31
f 269/62/32 270/65/32 271/64/32 272/63/32
f 273/62/31 274/63/31 275/64/31 276/65/31
f 277/62/32 278/65/32 279/64/32 280/63/32
f 281/62/31 282/63/31 283/64/31 284/65/31
f 285/62/32 286/65/32 287/64/32 288/63/32
f 289/62/31 290/63/31 291/64/31 292/65/31
f 293/62/32 294/65/32 295/64/32 296/63/32
f 297/62/31 298/63/31 299/64/31 300/65/31
f 301/62/32 302/65/32 303/64/32 304/63/32
f 305/62/31 306/63/31 307/64/31 308/65/31
f 309/62/32 310/65/32 311/64/32 312/63/32
f 313/62/31 314/63/31 315/64/31 316/65/31
f 317/62/32 318/65/32 319/64/32 320/63/32
