# Blender v2.77 (sub 0) OBJ File: ''
# www.blender.org
v -0.009642 -0.367884 0.004093
v -0.001778 -0.334271 0.028773
v -0.023834 -0.314610 0.035206
v -0.086372 -0.341291 0.004535
v -0.051815 -0.346143 0.025727
v -0.062347 -0.323176 0.035851
v -0.091607 -0.259544 0.004950
v -0.088532 -0.303905 0.013956
v -0.047034 -0.277077 0.029569
v -0.013029 -0.261872 0.016223
v -0.043659 -0.248510 0.008253
v -0.010182 -0.272572 0.035814
v 0.038407 -0.302325 0.003299
v 0.013600 -0.262111 0.011721
v 0.009766 -0.301827 0.034903
v -0.032436 -0.294073 0.040371
v 0.029480 -0.277887 -0.023648
v 0.014181 -0.245423 -0.026351
v -0.030061 -0.232075 -0.018199
v -0.075118 -0.248091 -0.026614
v -0.093539 -0.278824 -0.021250
v -0.093899 -0.326083 -0.023106
v -0.076686 -0.364907 -0.033648
v -0.031236 -0.373950 -0.025288
v 0.014186 -0.364907 -0.033648
v 0.037459 -0.318588 -0.032366
vt 0.5634 0.2880
vt 0.5910 0.3978
vt 0.5137 0.4621
vt 0.2945 0.3749
vt 0.4156 0.3590
vt 0.3787 0.4341
vt 0.2762 0.6421
vt 0.2870 0.4971
vt 0.4324 0.5848
vt 0.5516 0.6345
vt 0.4442 0.6781
vt 0.5616 0.5995
vt 0.7318 0.5023
vt 0.6449 0.6337
vt 0.6315 0.5039
vt 0.4836 0.5292
vt 0.7006 0.5821
vt 0.6469 0.6882
vt 0.4919 0.7318
vt 0.3340 0.6795
vt 0.2694 0.5791
vt 0.2682 0.4246
vt 0.3285 0.2977
vt 0.4878 0.2682
vt 0.6470 0.2977
vt 0.7285 0.4491
vn -0.2426 -0.5366 0.8082
vn -0.4960 -0.5305 0.6874
vn -0.4319 0.1506 0.8892
vn 0.2636 0.8622 0.4326
vn 0.7084 0.3035 0.6372
vn 0.1399 0.0646 0.9881
vn 0.5759 0.3700 0.7291
vn 0.0870 0.8796 0.4678
vn -0.2003 0.3972 0.8956
vn -0.2044 0.6008 0.7728
vn -0.1918 0.6014 0.7756
vn -0.3747 0.2463 0.8938
vn -0.4893 0.2753 0.8275
vn -0.7134 -0.2097 0.6686
vn 0.0648 -0.2178 0.9738
vn 0.0965 -0.3641 0.9264
vn 0.2131 -0.4498 0.8673
vn 0.0880 -0.2081 0.9741
vn 0.0910 -0.2160 0.9721
vn 0.6875 -0.3634 0.6287
vn 0.8546 0.4928 0.1639
vn 0.8792 0.4312 0.2024
vn 0.0760 0.9128 0.4013
vn 0.1906 0.7869 0.5869
vn -0.3709 0.8622 0.3450
vn -0.2332 0.9468 0.2218
vn -0.9931 -0.0470 0.1078
vn -0.9898 0.0020 0.1422
vn -0.9727 -0.1080 0.2055
vn -0.3726 -0.8285 0.4179
vn -0.2477 -0.8892 0.3847
vn -0.2640 -0.8876 0.3773
vn 0.7516 -0.4955 0.4354
vn 0.8095 -0.4181 0.4122
vn 0.7000 -0.6566 0.2808
vn 0.3331 0.7882 0.5175
vn -0.8450 0.4585 -0.2751
vn -0.9117 -0.4103 0.0225
vn 0.2042 -0.9776 0.0518
vn 0.9683 0.2165 -0.1245
vn -0.4575 0.0384 -0.8884
g Cylinder_Cylinder_coal_Cylinder_Cylinder_coal_coal
s 1
f 1/1/1 2/2/1 3/3/1
f 4/4/2 5/5/2 6/6/2
f 7/7/3 8/8/3 9/9/3
f 10/10/4 11/11/4 12/12/4
f 13/13/5 14/14/5 15/15/5
f 15/15/6 12/12/6 16/16/6
f 15/15/7 14/14/7 12/12/7
f 14/14/8 10/10/8 12/12/8
f 12/12/9 9/9/9 16/16/9
f 12/12/10 11/11/10 9/9/10
f 11/11/11 7/7/11 9/9/11
f 9/9/12 6/6/12 16/16/12
f 9/9/13 8/8/13 6/6/13
f 8/8/14 4/4/14 6/6/14
f 6/6/15 3/3/15 16/16/15
f 6/6/16 5/5/16 3/3/16
f 5/5/17 1/1/17 3/3/17
f 3/3/18 15/15/18 16/16/18
f 3/3/19 2/2/19 15/15/19
f 2/2/20 13/13/20 15/15/20
f 17/17/21 14/14/21 13/13/21
f 17/17/22 18/18/22 14/14/22
f 18/18/23 10/10/23 14/14/23
f 19/19/24 11/11/24 10/10/24
f 19/19/25 20/20/25 11/11/25
f 20/20/26 7/7/26 11/11/26
f 21/21/27 8/8/27 7/7/27
f 21/21/28 22/22/28 8/8/28
f 22/22/29 4/4/29 8/8/29
f 23/23/30 5/5/30 4/4/30
f 23/23/31 24/24/31 5/5/31
f 24/24/32 1/1/32 5/5/32
f 25/25/33 2/2/33 1/1/33
f 25/25/34 26/26/34 2/2/34
f 26/26/35 13/13/35 2/2/35
f 18/18/36 19/19/36 10/10/36
f 20/20/37 21/21/37 7/7/37
f 22/22/38 23/23/38 4/4/38
f 24/24/39 25/25/39 1/1/39
f 26/26/40 17/17/40 13/13/40
f 22/22/41 21/21/41 23/23/41
v -0.167964 -0.298667 -0.020341
v 0.105464 -0.298667 -0.020341
v 0.105464 -0.298667 0.311681
v -0.167964 -0.298667 0.311681
v -0.031250 -0.161953 -0.020341
v -0.031250 -0.435381 -0.020341
v -0.031250 -0.435381 0.311681
v -0.031250 -0.161953 0.311681
v 0.065422 -0.395338 -0.020341
v 0.065422 -0.395338 0.311681
v -0.127922 -0.201995 0.311681
v -0.127922 -0.201995 -0.020341
v -0.127922 -0.395338 -0.020341
v 0.065422 -0.201995 -0.020341
v 0.065422 -0.201995 0.311681
v -0.127922 -0.395338 0.311681
vt 1.0000 0.0000
vt 0.0000 1.0000
vt 0.0000 0.0000
vt 1.0000 0.0000
vt 0.0000 1.0000
vt 0.0000 0.0000
vt 0.0000 1.0000
vt 1.0000 0.0000
vt 0.0000 0.0000
vt 0.0000 0.0000
vt 1.0000 1.0000
vt 0.0000 1.0000
vt 1.0000 1.0000
vt 1.0000 1.0000
vt 1.0000 1.0000
vt 1.0000 0.0000
vn 0.0000 -1.0000 0.0000
vn -1.0000 -0.0000 0.0000
vn -0.7071 -0.7071 0.0000
vn 0.7071 -0.7071 0.0000
g Cylinder_Cylinder_flames_Cylinder_Cylinder_flames_flame
s 1
f 28/27/42 30/28/42 27/29/42
f 32/30/43 34/31/43 31/32/43
f 36/33/44 38/34/44 35/35/44
f 39/36/45 41/37/45 42/38/45
f 28/27/42 29/39/42 30/28/42
f 32/30/43 33/40/43 34/31/43
f 36/33/44 37/41/44 38/34/44
f 39/36/45 40/42/45 41/37/45
v -0.031250 -0.499062 -0.424562
v -0.070105 -0.499062 -0.424562
v -0.031250 -0.499955 -0.445022
v 0.007605 -0.499062 -0.424562
v 0.001447 -0.469230 -0.456205
v 0.007605 -0.462550 -0.437851
v 0.007605 -0.426038 -0.451141
v -0.031250 -0.426038 -0.451141
v -0.031250 -0.438505 -0.467388
v -0.070105 -0.426038 -0.451141
v -0.070105 -0.462550 -0.437851
v -0.063947 -0.469230 -0.456205
v -0.031256 -0.153914 0.031996
v 0.069783 -0.193861 0.031995
v 0.007605 -0.297781 -0.098756
v -0.031250 -0.297781 -0.098756
v -0.172703 -0.293707 0.031996
v -0.132283 -0.193861 0.031995
v -0.070105 -0.297781 -0.098756
v -0.070105 -0.334293 -0.085467
v -0.031256 -0.433499 0.031996
v -0.132283 -0.393565 0.031995
v -0.070105 -0.370805 -0.072177
v -0.031250 -0.370805 -0.072177
v 0.110190 -0.293707 0.031996
v 0.069783 -0.393565 0.031995
v 0.007605 -0.370805 -0.072177
v 0.007605 -0.334293 -0.085467
v -0.031250 -0.474574 -0.470887
v -0.106916 -0.218975 0.031995
v -0.031180 -0.188968 0.031996
v 0.044525 -0.218824 0.031995
v 0.074830 -0.293707 0.031985
v 0.044527 -0.368602 0.031980
v -0.031244 -0.398534 0.031980
v -0.107009 -0.368578 0.031987
v -0.137254 -0.293796 0.031991
v -0.070790 -0.352884 -0.026969
v -0.086583 -0.315042 -0.026963
v 0.008333 -0.352896 -0.026981
v -0.031230 -0.368042 -0.026981
v 0.008332 -0.277105 -0.026956
v 0.024156 -0.314997 -0.026972
v -0.070742 -0.277181 -0.026956
v -0.031197 -0.261997 -0.026954
vt 1.0000 0.5290
vt 1.0000 0.6348
vt 0.9423 0.5290
vt 1.0000 0.4232
vt 0.9423 0.3174
vt 1.0000 0.3174
vt 1.0000 0.2116
vt 0.9379 0.7407
vt 0.8802 0.7407
vt 0.9379 0.6348
vt 1.0000 0.0000
vt 1.0000 0.1058
vt 0.9423 0.1058
vt 0.0625 0.5000
vt 0.2500 0.3750
vt 0.2500 0.5000
vt 0.0625 0.7500
vt 0.2500 0.6250
vt 0.2500 0.7500
vt 0.0625 1.0000
vt 0.2500 0.8750
vt 0.2500 1.0000
vt 0.0625 0.1250
vt 0.2500 0.2500
vt 0.0625 0.2500
vt 1.0000 0.2116
vt 0.9379 0.8465
vt 0.9236 0.2284
vt 0.9236 0.1948
vt 0.9236 0.6181
vt 0.9236 0.4400
vt 0.8802 0.3174
vt 0.8802 0.1058
vt 0.8802 0.5290
vt 0.0000 1.0000
vt 0.0625 0.0000
vt 0.1875 1.0000
vt 0.1875 0.0000
vt 0.3125 0.0000
vt 0.7500 0.0000
vt 0.6875 1.0000
vt 0.5625 0.0000
vt 0.5625 1.0000
vt 0.5000 1.0000
vt 0.3125 0.5000
vt 0.3750 0.3750
vt 0.3750 0.5000
vt 0.3125 0.7500
vt 0.3750 0.6250
vt 0.3750 0.7500
vt 0.3125 1.0000
vt 0.3750 0.8750
vt 0.3750 1.0000
vt 0.3125 0.2500
vt 0.3750 0.1250
vt 0.3750 0.2500
vt 0.4375 0.1250
vt 0.8125 0.2500
vt 0.4375 0.2500
vt 0.4375 1.0000
vt 0.8125 0.8750
vt 0.8125 1.0000
vt 0.4375 0.7500
vt 0.8125 0.6250
vt 0.8125 0.7500
vt 0.4375 0.3750
vt 0.8125 0.5000
vt 0.4375 0.5000
vt 0.3125 0.3750
vt 0.3125 0.0000
vt 0.3125 0.1250
vt 0.3125 0.8750
vt 0.3125 0.6250
vt 0.0625 0.3750
vt 0.0625 0.0000
vt 0.2500 0.1250
vt 0.0625 0.8750
vt 0.0625 0.6250
vt 0.4375 0.6250
vt 0.4375 0.8750
vt 0.4375 0.0000
vt 0.8125 0.1250
vt 0.8125 0.3750
vt 0.0000 0.0000
vt 0.3750 0.0000
vt 0.3750 1.0000
vt 0.7500 1.0000
vt 0.3750 1.0000
vt 0.3750 0.0000
vt 0.3750 0.0000
vt 0.2500 0.0000
vt 0.8125 0.0000
vn 0.0000 -0.9990 0.0436
vn 0.9537 -0.1028 -0.2826
vn 0.0000 0.7933 -0.6088
vn -0.9537 -0.1028 -0.2826
vn 0.2314 0.6878 -0.6880
vn 0.0808 0.6822 -0.7266
vn 0.0000 0.6726 -0.7400
vn -0.7623 0.2289 -0.6053
vn -0.7865 -0.0512 -0.6155
vn -0.7711 -0.2178 -0.5983
vn -0.2667 -0.8665 -0.4220
vn -0.1427 -0.8706 -0.4707
vn 0.0000 -0.8568 -0.5156
vn 0.7759 -0.2931 -0.5586
vn 0.7991 -0.2475 -0.5479
vn 0.7666 -0.3102 -0.5623
vn 0.3698 0.0560 -0.9274
vn -0.3698 0.0560 -0.9274
vn -0.3698 -0.6390 -0.6744
vn 0.3698 -0.6390 -0.6744
vn 0.3959 0.0887 -0.9140
vn -0.3959 0.0887 -0.9140
vn -0.3959 -0.6554 -0.6432
vn 0.3959 -0.6554 -0.6432
vn 0.0000 -0.9397 0.3420
vn -1.0000 0.0000 0.0000
vn 0.0000 0.9397 -0.3420
vn 1.0000 0.0000 0.0000
vn -0.0000 -0.0000 1.0000
vn -0.0003 -0.0000 1.0000
vn -0.0003 -0.0001 1.0000
vn 0.0000 0.0004 1.0000
vn -0.0003 0.0003 1.0000
vn 0.0000 0.0005 1.0000
vn 0.0001 -0.0000 1.0000
vn 0.0002 0.0002 1.0000
vn 0.0001 -0.0001 1.0000
vn 0.7711 0.3151 0.5533
vn 0.7700 0.3163 0.5541
vn 0.7731 0.3127 0.5518
vn -0.3283 0.8408 0.4304
vn -0.3276 0.8408 0.4310
vn -0.3220 0.8410 0.4348
vn -0.6752 -0.2760 0.6840
vn -0.6751 -0.2781 0.6833
vn -0.6748 -0.2821 0.6819
vn 0.2400 -0.6111 0.7543
vn 0.2386 -0.6126 0.7535
vn 0.2415 -0.6096 0.7551
vn 0.7624 0.2289 -0.6053
vn 0.7865 -0.0512 -0.6155
vn 0.7455 0.3017 -0.5943
vn 0.2667 -0.8665 -0.4220
vn 0.1427 -0.8707 -0.4707
vn 0.3386 -0.8567 -0.3893
vn -0.7759 -0.2932 -0.5586
vn -0.7991 -0.2476 -0.5479
vn -0.8231 -0.1943 -0.5337
vn -0.2315 0.6878 -0.6880
vn -0.0808 0.6822 -0.7266
vn -0.2714 0.6864 -0.6746
vn -0.2389 -0.6112 0.7545
vn -0.2375 -0.6127 0.7538
vn -0.2351 -0.6152 0.7525
vn -0.7711 0.3153 0.5531
vn -0.7701 0.3165 0.5539
vn -0.7670 0.3201 0.5561
vn 0.3286 0.8406 0.4305
vn 0.3279 0.8407 0.4311
vn 0.3324 0.8405 0.4279
vn 0.6752 -0.2764 0.6839
vn 0.6750 -0.2785 0.6832
vn 0.6753 -0.2739 0.6848
vn 0.2714 0.6864 -0.6746
vn -0.7455 0.3018 -0.5943
vn -0.3386 -0.8566 -0.3893
vn 0.8231 -0.1943 -0.5337
vn 0.7669 0.3200 0.5563
vn -0.3321 0.8407 0.4278
vn -0.6754 -0.2734 0.6849
vn 0.2361 -0.6151 0.7522
vn 0.7712 -0.2177 -0.5983
vn -0.7665 -0.3103 -0.5623
vn -0.2404 -0.6097 0.7553
vn -0.7732 0.3128 0.5516
vn 0.3223 0.8408 0.4349
vn 0.6748 -0.2825 0.6818
g Cylinder_Cylinder_torch-body_Cylinder_Cylinder_torch-body_body
s 1
f 43/43/46 44/44/46 45/45/46
f 46/46/47 47/47/47 48/48/47
f 48/48/47 47/47/47 49/49/47
f 50/50/48 51/51/48 52/52/48
f 44/53/49 53/54/49 54/55/49
f 55/56/50 57/57/51 58/58/52
f 59/59/53 61/60/54 62/61/55
f 63/62/56 65/63/57 66/64/58
f 68/65/59 70/66/60 67/67/61
f 46/46/46 43/43/46 45/45/46
f 53/54/49 52/68/49 54/55/49
f 49/69/48 51/51/48 50/50/48
f 51/70/62 49/49/62 47/47/62
f 51/71/63 54/55/63 52/68/63
f 45/45/64 44/44/64 54/72/64
f 47/73/65 46/46/65 45/45/65
f 71/74/66 51/70/66 47/47/66
f 71/75/67 54/55/67 51/71/67
f 71/76/68 45/45/68 54/72/68
f 71/76/69 47/73/69 45/45/69
f 46/77/70 66/78/70 44/79/70
f 44/79/71 65/80/71 62/81/71
f 52/82/72 58/83/72 49/84/72
f 49/84/73 57/85/73 70/86/73
f 55/87/74 72/88/74 73/89/74
f 67/90/75 74/91/74 75/92/76
f 63/93/77 76/94/78 77/95/79
f 59/96/80 78/97/81 79/98/82
f 78/99/83 81/100/84 79/101/85
f 77/102/86 82/103/87 83/104/88
f 75/105/89 84/106/90 85/107/91
f 72/108/92 87/109/93 73/110/94
f 59/96/80 72/88/74 60/111/74
f 63/112/77 78/97/81 64/113/81
f 67/90/75 76/94/78 68/114/78
f 55/87/74 74/91/74 56/115/74
f 67/67/95 57/57/96 56/116/97
f 63/117/98 69/118/99 68/65/100
f 64/119/101 62/61/102 65/63/103
f 55/56/104 61/60/105 60/120/106
f 74/121/107 87/109/108 84/106/109
f 76/122/110 85/107/111 82/103/112
f 77/123/113 80/124/114 78/99/115
f 79/101/116 86/125/117 72/108/118
f 55/56/50 56/116/119 57/57/51
f 59/59/53 60/120/120 61/60/54
f 63/62/56 64/119/121 65/63/57
f 68/65/59 69/118/122 70/66/60
f 65/80/70 44/79/70 66/78/70
f 46/77/70 69/126/70 66/78/70
f 62/81/71 61/127/71 52/128/71
f 52/128/71 44/79/71 62/81/71
f 57/85/72 49/84/72 58/83/72
f 52/82/72 61/129/72 58/83/72
f 70/86/73 69/130/73 46/131/73
f 46/131/73 49/84/73 70/86/73
f 55/87/74 60/111/74 72/88/74
f 67/90/75 56/115/74 74/91/74
f 63/93/77 68/114/78 76/94/78
f 59/96/80 64/113/81 78/97/81
f 78/99/83 80/124/123 81/100/84
f 77/102/86 76/122/124 82/103/87
f 75/105/89 74/121/125 84/106/90
f 72/108/92 86/125/126 87/109/93
f 59/96/80 79/98/82 72/88/74
f 63/112/77 77/132/79 78/97/81
f 67/90/75 75/92/76 76/94/78
f 55/87/74 73/89/74 74/91/74
f 67/67/95 70/66/127 57/57/96
f 63/117/98 66/133/58 69/118/99
f 64/119/101 59/59/128 62/61/102
f 55/56/104 58/58/52 61/60/105
f 74/121/107 73/110/129 87/109/108
f 76/122/110 75/105/130 85/107/111
f 77/123/113 83/134/131 80/124/114
f 79/101/116 81/100/132 86/125/117
v 0.007605 -0.304330 -0.116816
v 0.007605 -0.330909 -0.189840
v -0.070105 -0.330909 -0.189840
v -0.070105 -0.304330 -0.116816
v -0.070180 -0.500000 -0.128375
v -0.070192 -0.500000 -0.045506
v 0.013082 -0.297353 -0.113527
v 0.013082 -0.327678 -0.196844
v -0.075582 -0.327678 -0.196844
v -0.075582 -0.297353 -0.113527
v 0.013082 -0.500000 -0.039769
v 0.013082 -0.500000 -0.134124
v -0.075582 -0.500000 -0.039769
v -0.075582 -0.500000 -0.134124
v 0.007692 -0.500000 -0.045506
v 0.007680 -0.500000 -0.128375
vt 0.7346 0.9820
vt 0.5154 0.7266
vt 0.7346 0.7266
vt 0.0152 0.6091
vt 0.2346 0.0178
vt 0.2348 0.7022
vt 0.7500 1.0000
vt 0.5000 0.7086
vt 0.7500 0.7086
vt 0.7500 0.6026
vt 1.0000 0.0000
vt 1.0000 0.7086
vt 0.2500 0.7086
vt 0.4783 0.7266
vt 0.5000 1.0000
vt 0.4783 0.9820
vt 0.0154 0.0178
vt 0.0000 0.6026
vt 0.0000 0.0000
vt 0.7500 0.6026
vt 0.5000 0.0000
vt 0.7500 0.0000
vt 0.2654 0.0178
vt 0.2500 0.7086
vt 0.2500 0.0000
vt 0.4848 0.6091
vt 0.2652 0.7022
vt 0.4846 0.0178
vt 0.5000 0.6026
vt 0.5154 0.9820
vt 0.5000 1.0000
vt 0.7500 0.0000
vt 0.2500 0.0000
vt 0.5000 0.7086
vt 0.5000 0.7086
vt 0.5000 0.0000
vn 0.0000 0.9397 -0.3420
vn 1.0000 -0.0004 0.0001
vn 1.0000 0.0000 0.0000
vn 0.0000 0.4264 -0.9045
vn 0.7071 0.2418 0.6645
vn 0.7072 0.2418 0.6644
vn 0.0000 -0.9080 -0.4189
vn 0.7071 -0.2419 -0.6645
vn 0.7071 -0.2418 -0.6644
vn -1.0000 -0.0000 0.0000
vn -0.7071 0.2418 0.6645
vn -0.7072 0.2418 0.6644
vn -1.0000 -0.0004 0.0001
vn -0.7071 -0.2419 -0.6645
vn -0.7071 -0.2418 -0.6644
g Cylinder_Cylinder_bracket_Cylinder_Cylinder_bracket_bracket
s 1
f 89/135/133 91/136/133 88/137/133
f 92/138/134 91/139/134 93/140/134
f 95/141/133 97/142/133 94/143/133
f 99/144/135 94/145/135 98/146/135
f 97/142/136 88/137/136 91/136/136
f 91/139/137 100/147/138 93/140/138
f 90/148/139 95/149/139 89/150/139
f 90/151/140 101/152/141 96/153/140
f 101/154/142 97/155/142 96/156/142
f 88/157/143 98/158/144 94/159/143
f 88/157/145 103/160/145 102/161/145
f 89/162/146 99/163/147 103/160/147
f 89/135/133 90/164/133 91/136/133
f 92/138/134 90/151/134 91/139/134
f 95/141/133 96/165/133 97/142/133
f 99/144/135 95/166/135 94/145/135
f 97/142/136 94/143/136 88/137/136
f 91/139/137 97/167/137 100/147/138
f 90/148/139 96/168/139 95/149/139
f 90/151/140 92/138/141 101/152/141
f 101/154/142 100/169/142 97/155/142
f 88/157/143 102/161/144 98/158/144
f 88/157/145 89/162/145 103/160/145
f 89/162/146 95/170/146 99/163/147
