# Blender v2.79 (sub 0) OBJ File: ''
# www.blender.org
o Plane.001
v 0.000000 0.000000 0.500000
v 0.500000 0.000000 0.500000
v 0.000000 0.500000 0.500000
v 0.500000 0.000000 0.000000
v 0.500000 0.500000 0.500000
v 0.500000 0.500000 0.000000
v -0.500000 -0.500000 0.500000
v 0.500000 -0.500000 0.500000
v -0.500000 -0.000000 0.500000
v 0.500000 -0.500000 -0.500000
v 0.500000 -0.000000 0.500000
v 0.500000 -0.000000 -0.500000
vn 0.0000 -1.0000 0.0000
vn 0.0000 1.0000 0.0000
vn -0.7071 0.0000 -0.7071
vn 1.0000 0.0000 0.0000
vn 0.0000 0.0000 1.0000
s off
f 2//1 1//1 4//1
f 5//2 6//2 3//2
f 4//3 1//3 3//3 6//3
f 2//4 4//4 6//4 5//4
f 1//5 2//5 5//5 3//5
f 8//1 7//1 10//1
f 11//2 12//2 9//2
f 10//3 7//3 9//3 12//3
f 8//4 10//4 12//4 11//4
f 7//5 8//5 11//5 9//5
