# Blender v2.79 (sub 0) OBJ File: ''
# www.blender.org
o Plane.006
v 0.500000 0.500000 0.500000
v 0.500000 0.500000 -0.000000
v 0.000000 0.500000 0.500000
v 0.000000 -0.000000 0.500000
v 0.500000 0.000000 -0.000000
v 0.500000 -0.000000 0.500000
v 0.500000 -0.500000 0.500000
v -0.500000 -0.500000 0.500000
v 0.500000 -0.500000 -0.500000
v 0.500000 -0.000000 0.500000
v 0.500000 0.000000 -0.500000
v -0.500000 -0.000000 0.500000
v -0.500000 -0.500000 -0.500000
v -0.500000 0.000000 -0.500000
vt 0.007338 1.008932
vt 0.000000 0.500000
vt 0.500000 1.000000
vt 0.499916 0.000000
vt 0.000084 0.500000
vt 0.000084 0.000000
vt 0.499900 0.500100
vt 0.000100 0.999900
vt 0.000100 0.500100
vt 0.999900 0.500100
vt 0.500100 0.999900
vt 0.500100 0.500100
vt 0.000000 1.000000
vt 0.000000 0.000000
vt 1.000000 0.000000
vt 1.000000 1.000000
vt 0.999965 0.000035
vt 0.000106 0.499965
vt 0.000106 0.000035
vt 0.999929 0.000071
vt 0.000071 0.500000
vt 0.000071 0.000071
vt 0.499916 0.500000
vt 0.499900 0.999900
vt 0.999900 0.999900
vt 0.999965 0.499965
vt 0.999929 0.500000
vt 0.000000 0.000000
vt 0.000000 0.000000
vt 0.000000 0.000000
vt 0.000000 0.000000
vt 0.000000 0.500000
vt 1.000000 0.500000
vt 1.000000 0.000000
vt 1.000106 1.000035
vt 0.000071 1.000071
vn 0.0000 1.0000 0.0000
vn -0.7071 -0.0000 -0.7071
vn 1.0000 -0.0000 -0.0000
vn 0.0000 0.0000 1.0000
vn 0.0000 -1.0000 -0.0000
vn -0.0000 0.0000 -1.0000
vn -0.0000 -0.7071 -0.7071
vn -0.5774 -0.5774 -0.5774
vn -0.7071 -0.7071 0.0000
vn -1.0000 -0.0000 0.0000
s 1
f 1/1/1 2/2/1 3/3/1
f 4/4/2 2/5/2 5/6/2
f 5/7/3 1/8/3 6/9/3
f 6/10/4 3/11/4 4/12/4
f 10/13/1 11/14/1 14/15/1 12/16/1
f 9/17/3 10/18/3 7/19/3
f 7/20/4 12/21/4 8/22/4
f 4/4/2 3/23/2 2/5/2
f 5/7/3 2/24/3 1/8/3
f 6/10/4 1/25/4 3/11/4
f 9/17/3 11/26/3 10/18/3
f 7/20/4 10/27/4 12/21/4
f 6/28/5 4/29/5 5/30/5
f 11/26/6 9/17/7 13/31/8 14/32/2
f 8/22/9 12/21/10 14/33/2 13/34/8
f 13/31/8 9/17/7 7/35/5 8/36/9
