# Blender v3.0.1 OBJ File: ''
# www.blender.org
mtllib untitled.mtl
o moreblocks_slope_inner_half
v 0.500000 -0.000000 0.500000
v 0.500000 -0.500000 0.500000
v 0.500000 -0.000000 0.500000
v 0.500000 -0.500000 0.500000
v 0.500000 -0.000000 0.500000
v 0.500000 -0.500000 0.500000
v 0.000000 -0.500000 -0.000000
v 0.500000 -0.500000 -0.000000
v 0.000000 -0.500000 0.500000
v 0.000000 -0.500000 -0.000000
vt -0.000000 0.500000
vt 0.000000 -0.000000
vt 0.500000 0.000000
vt 0.500000 0.500000
vt 0.500000 1.000000
vt 0.000000 1.000000
vt 0.000000 0.500000
vt 0.000000 1.000000
vt 0.000000 0.500000
vt 0.500000 0.500000
vt 1.000000 0.500000
vt 0.500000 0.000000
vt 1.000000 0.000000
vt 0.500000 1.000000
vn 0.5296 0.7913 0.3055
vn 1.0000 0.0000 0.0000
vn 0.0000 -1.0000 0.0000
vn 0.2367 0.9505 0.2015
vn 0.0000 0.7071 -0.7071
vn -0.8879 -0.3387 -0.3112
vn 0.3435 0.7756 0.5296
vn 0.0000 -0.0000 1.0000
vn -0.7071 0.7071 0.0000
vn 0.1924 0.9414 0.2771
usemtl Material.002
s off
f 5/1/1 6/2/2 8/3/2
f 8/4/3 6/5/3 9/6/3 10/7/3
f 5/8/4 8/9/5 10/10/6
f 5/11/7 9/12/8 6/13/8
f 9/14/9 5/8/10 10/10/9
l 8 2
l 4 3
l 2 6
l 1 7
l 2 9
